<svg width="63" height="37" viewBox="0 0 63 37" fill="none" xmlns="http://www.w3.org/2000/svg">
<path d="M14.4009 12.6C16.8943 12.8933 18.8889 13.7147 20.3849 15.064C21.8809 16.384 22.6289 18.0413 22.6289 20.036C22.6289 21.5613 22.1743 22.94 21.2649 24.172C20.3556 25.404 19.1089 26.3867 17.5249 27.12C15.9409 27.824 14.1663 28.176 12.2009 28.176C11.3796 28.176 10.4409 28.132 9.38492 28.044C8.97426 28.0147 8.46092 27.9853 7.84492 27.956C7.25826 27.9267 6.59826 27.912 5.86492 27.912L2.69692 27.956C2.13959 27.9853 1.36226 28 0.364923 28C0.306256 28 0.276923 27.912 0.276923 27.736C0.276923 27.56 0.306256 27.472 0.364923 27.472C1.21559 27.472 1.84626 27.3987 2.25692 27.252C2.69692 27.076 3.00492 26.7827 3.18092 26.372C3.35692 25.9613 3.44492 25.316 3.44492 24.436V4.064C3.44492 3.21333 3.35692 2.58267 3.18092 2.172C3.03426 1.732 2.74092 1.43866 2.30092 1.292C1.89026 1.116 1.25959 1.028 0.408923 1.028C0.350256 1.028 0.320923 0.939999 0.320923 0.763999C0.320923 0.588 0.350256 0.5 0.408923 0.5L2.74092 0.543999C4.03159 0.602665 5.07292 0.631998 5.86492 0.631998C6.68626 0.631998 7.53692 0.587999 8.41692 0.5C8.71026 0.470665 9.15026 0.441331 9.73692 0.411999C10.3236 0.382666 10.8369 0.367999 11.2769 0.367999C14.0343 0.367999 16.1609 0.851999 17.6569 1.82C19.1823 2.788 19.9449 4.196 19.9449 6.044C19.9449 7.452 19.4756 8.728 18.5369 9.872C17.5983 11.016 16.2196 11.9253 14.4009 12.6ZM10.6169 1.248C9.76626 1.248 9.17959 1.45333 8.85692 1.864C8.53426 2.27466 8.37292 3.03733 8.37292 4.152V12.512L10.1769 12.556C11.7609 12.556 12.9783 11.984 13.8289 10.84C14.7089 9.66667 15.1489 8.2 15.1489 6.44C15.1489 4.768 14.7529 3.492 13.9609 2.612C13.1983 1.70267 12.0836 1.248 10.6169 1.248ZM11.4529 27.208C13.5356 27.208 15.0609 26.6947 16.0289 25.668C16.9969 24.6413 17.4809 23.116 17.4809 21.092C17.4809 18.8333 16.9236 17.044 15.8089 15.724C14.6943 14.404 12.9783 13.744 10.6609 13.744C9.81026 13.744 9.04759 13.7733 8.37292 13.832V24.436C8.37292 25.4627 8.56359 26.1813 8.94492 26.592C9.32626 27.0027 10.1623 27.208 11.4529 27.208ZM62.0316 35.656C62.1196 35.6267 62.2076 35.6853 62.2956 35.832C62.3836 36.008 62.3836 36.1107 62.2956 36.14C61.0636 36.58 60.0223 36.8 59.1716 36.8C57.0303 36.8 54.8156 36.052 52.5276 34.556C50.2396 33.06 48.0836 30.904 46.0596 28.088C44.6516 28.3813 43.3463 28.528 42.1436 28.528C39.3569 28.528 36.8929 27.8973 34.7516 26.636C32.6103 25.3747 30.9529 23.6733 29.7796 21.532C28.6356 19.3613 28.0636 16.956 28.0636 14.316C28.0636 11.6173 28.6943 9.18267 29.9556 7.012C31.2463 4.84133 33.0063 3.14 35.2356 1.908C37.4943 0.646665 40.0316 0.0159984 42.8476 0.0159984C45.6929 0.0159984 48.2009 0.631998 50.3716 1.864C52.5423 3.06667 54.2143 4.73867 55.3876 6.88C56.5903 8.992 57.1916 11.3533 57.1916 13.964C57.1916 16.8093 56.5463 19.3173 55.2556 21.488C53.9649 23.6293 52.2196 25.316 50.0196 26.548C51.0169 28.2787 52.1903 29.848 53.5396 31.256C54.9183 32.6933 56.2529 33.808 57.5436 34.6C58.8636 35.4213 59.9196 35.832 60.7116 35.832C61.2396 35.832 61.6796 35.7733 62.0316 35.656ZM33.1236 11.896C33.1236 14.536 33.5783 17.0587 34.4876 19.464C35.3969 21.84 36.6729 23.7613 38.3156 25.228C39.9876 26.6653 41.8796 27.384 43.9916 27.384C45.6049 27.384 47.0129 26.944 48.2156 26.064C49.4476 25.184 50.4009 23.9373 51.0756 22.324C51.7503 20.6813 52.0876 18.76 52.0876 16.56C52.0876 13.8613 51.6329 11.324 50.7236 8.948C49.8143 6.572 48.5383 4.66533 46.8956 3.228C45.2529 1.79066 43.3756 1.072 41.2636 1.072C39.6503 1.072 38.2276 1.512 36.9956 2.392C35.7636 3.272 34.8103 4.53333 34.1356 6.176C33.4609 7.78933 33.1236 9.696 33.1236 11.896Z" fill="white"/>
</svg>
