<svg width="71" height="45" viewBox="0 0 71 45" fill="none" xmlns="http://www.w3.org/2000/svg">
<g filter="url(#filter0_d_1430:10)">
<path d="M18.9009 12.6C21.3943 12.8933 23.3889 13.7147 24.8849 15.064C26.3809 16.384 27.1289 18.0413 27.1289 20.036C27.1289 21.5613 26.6743 22.94 25.7649 24.172C24.8556 25.404 23.6089 26.3867 22.0249 27.12C20.4409 27.824 18.6663 28.176 16.7009 28.176C15.8796 28.176 14.9409 28.132 13.8849 28.044C13.4743 28.0147 12.9609 27.9853 12.3449 27.956C11.7583 27.9267 11.0983 27.912 10.3649 27.912L7.19692 27.956C6.63959 27.9853 5.86226 28 4.86492 28C4.80626 28 4.77692 27.912 4.77692 27.736C4.77692 27.56 4.80626 27.472 4.86492 27.472C5.71559 27.472 6.34626 27.3987 6.75692 27.252C7.19692 27.076 7.50492 26.7827 7.68092 26.372C7.85692 25.9613 7.94492 25.316 7.94492 24.436V4.064C7.94492 3.21333 7.85692 2.58267 7.68092 2.172C7.53426 1.732 7.24092 1.43866 6.80092 1.292C6.39026 1.116 5.75959 1.028 4.90892 1.028C4.85026 1.028 4.82092 0.939999 4.82092 0.763999C4.82092 0.588 4.85026 0.5 4.90892 0.5L7.24092 0.543999C8.53159 0.602665 9.57292 0.631998 10.3649 0.631998C11.1863 0.631998 12.0369 0.587999 12.9169 0.5C13.2103 0.470665 13.6503 0.441331 14.2369 0.411999C14.8236 0.382666 15.3369 0.367999 15.7769 0.367999C18.5343 0.367999 20.6609 0.851999 22.1569 1.82C23.6823 2.788 24.4449 4.196 24.4449 6.044C24.4449 7.452 23.9756 8.728 23.0369 9.872C22.0983 11.016 20.7196 11.9253 18.9009 12.6ZM15.1169 1.248C14.2663 1.248 13.6796 1.45333 13.3569 1.864C13.0343 2.27466 12.8729 3.03733 12.8729 4.152V12.512L14.6769 12.556C16.2609 12.556 17.4783 11.984 18.3289 10.84C19.2089 9.66667 19.6489 8.2 19.6489 6.44C19.6489 4.768 19.2529 3.492 18.4609 2.612C17.6983 1.70267 16.5836 1.248 15.1169 1.248ZM15.9529 27.208C18.0356 27.208 19.5609 26.6947 20.5289 25.668C21.4969 24.6413 21.9809 23.116 21.9809 21.092C21.9809 18.8333 21.4236 17.044 20.3089 15.724C19.1943 14.404 17.4783 13.744 15.1609 13.744C14.3103 13.744 13.5476 13.7733 12.8729 13.832V24.436C12.8729 25.4627 13.0636 26.1813 13.4449 26.592C13.8263 27.0027 14.6623 27.208 15.9529 27.208ZM66.5316 35.656C66.6196 35.6267 66.7076 35.6853 66.7956 35.832C66.8836 36.008 66.8836 36.1107 66.7956 36.14C65.5636 36.58 64.5223 36.8 63.6716 36.8C61.5303 36.8 59.3156 36.052 57.0276 34.556C54.7396 33.06 52.5836 30.904 50.5596 28.088C49.1516 28.3813 47.8463 28.528 46.6436 28.528C43.8569 28.528 41.3929 27.8973 39.2516 26.636C37.1103 25.3747 35.4529 23.6733 34.2796 21.532C33.1356 19.3613 32.5636 16.956 32.5636 14.316C32.5636 11.6173 33.1943 9.18267 34.4556 7.012C35.7463 4.84133 37.5063 3.14 39.7356 1.908C41.9943 0.646665 44.5316 0.0159984 47.3476 0.0159984C50.1929 0.0159984 52.7009 0.631998 54.8716 1.864C57.0423 3.06667 58.7143 4.73867 59.8876 6.88C61.0903 8.992 61.6916 11.3533 61.6916 13.964C61.6916 16.8093 61.0463 19.3173 59.7556 21.488C58.4649 23.6293 56.7196 25.316 54.5196 26.548C55.5169 28.2787 56.6903 29.848 58.0396 31.256C59.4183 32.6933 60.7529 33.808 62.0436 34.6C63.3636 35.4213 64.4196 35.832 65.2116 35.832C65.7396 35.832 66.1796 35.7733 66.5316 35.656ZM37.6236 11.896C37.6236 14.536 38.0783 17.0587 38.9876 19.464C39.8969 21.84 41.1729 23.7613 42.8156 25.228C44.4876 26.6653 46.3796 27.384 48.4916 27.384C50.1049 27.384 51.5129 26.944 52.7156 26.064C53.9476 25.184 54.9009 23.9373 55.5756 22.324C56.2503 20.6813 56.5876 18.76 56.5876 16.56C56.5876 13.8613 56.1329 11.324 55.2236 8.948C54.3143 6.572 53.0383 4.66533 51.3956 3.228C49.7529 1.79066 47.8756 1.072 45.7636 1.072C44.1503 1.072 42.7276 1.512 41.4956 2.392C40.2636 3.272 39.3103 4.53333 38.6356 6.176C37.9609 7.78933 37.6236 9.696 37.6236 11.896Z" fill="#DCCA87"/>
</g>
<defs>
<filter id="filter0_d_1430:10" x="0.776855" y="0.0159912" width="70.1509" height="44.784" filterUnits="userSpaceOnUse" color-interpolation-filters="sRGB">
<feFlood flood-opacity="0" result="BackgroundImageFix"/>
<feColorMatrix in="SourceAlpha" type="matrix" values="0 0 0 0 0 0 0 0 0 0 0 0 0 0 0 0 0 0 127 0" result="hardAlpha"/>
<feOffset dy="4"/>
<feGaussianBlur stdDeviation="2"/>
<feComposite in2="hardAlpha" operator="out"/>
<feColorMatrix type="matrix" values="0 0 0 0 0 0 0 0 0 0 0 0 0 0 0 0 0 0 0.25 0"/>
<feBlend mode="normal" in2="BackgroundImageFix" result="effect1_dropShadow_1430:10"/>
<feBlend mode="normal" in="SourceGraphic" in2="effect1_dropShadow_1430:10" result="shape"/>
</filter>
</defs>
</svg>
